<svg
  width="9"
  height="9"
  viewBox="0 0 9 9"
  fill="none"
  xmlns="http://www.w3.org/2000/svg"
>
<path
    d="M5.62676 3.99995L8.86676 0.759953C8.93958 0.674931 8.97762 0.565563 8.9733 0.453707C8.96898 0.341851 8.92261 0.235745 8.84346 0.156592C8.76431 0.0774389 8.6582 0.0310688 8.54634 0.0267482C8.43449 0.0224277 8.32512 0.0604751 8.2401 0.133287L5.0001 3.37329L1.7601 0.128842C1.67507 0.0560305 1.56571 0.0179836 1.45385 0.0223041C1.34199 0.0266246 1.23589 0.0729944 1.15674 0.152148C1.07758 0.231301 1.03121 0.337407 1.02689 0.449263C1.02257 0.561119 1.06062 0.670486 1.13343 0.755509L4.37343 3.99995L1.12899 7.23995C1.08246 7.2798 1.04467 7.32883 1.018 7.38397C0.99132 7.43911 0.976328 7.49917 0.973964 7.56037C0.9716 7.62158 0.981914 7.68262 1.00426 7.73965C1.0266 7.79669 1.06049 7.84848 1.10381 7.8918C1.14712 7.93511 1.19892 7.969 1.25595 7.99135C1.31299 8.01369 1.37402 8.02401 1.43523 8.02164C1.49644 8.01928 1.5565 8.00429 1.61164 7.97761C1.66678 7.95093 1.71581 7.91315 1.75565 7.86662L5.0001 4.62662L8.2401 7.86662C8.32512 7.93943 8.43449 7.97748 8.54634 7.97316C8.6582 7.96884 8.76431 7.92247 8.84346 7.84332C8.92261 7.76416 8.96898 7.65806 8.9733 7.5462C8.97762 7.43434 8.93958 7.32498 8.86676 7.23995L5.62676 3.99995Z"
    fill="white"
  />
</svg>
